<?xml version="1.0" encoding="utf-8"?>
<!-- Generator: Adobe Illustrator 26.0.2, SVG Export Plug-In . SVG Version: 6.00 Build 0)  -->
<svg version="1.1" id="Layer_1" xmlns="http://www.w3.org/2000/svg" xmlns:xlink="http://www.w3.org/1999/xlink" x="0px" y="0px"
	 viewBox="0 0 612 792" style="enable-background:new 0 0 612 792;" xml:space="preserve">
<style type="text/css">
	.st0{fill:#FFFFFF;}
</style>
<g>
	<path class="st0" d="M99.49,391.98c0-8,0-16,0-24c0.21-0.96,0.54-1.92,0.61-2.89c2.55-32.77,12.66-63.04,31.02-90.27
		c30.81-45.69,73.28-73.99,127.68-83.91c6.85-1.25,13.79-1.96,20.69-2.92c8,0,16,0,24,0c6.53,0.86,13.1,1.52,19.59,2.63
		c35.93,6.12,67.7,21.16,94.96,45.34c33.56,29.76,54.56,66.73,62.49,110.97c1.25,6.98,1.98,14.04,2.96,21.07c0,8,0,16,0,24
		c-0.22,0.96-0.48,1.91-0.64,2.88c-1.54,9.85-2.45,19.84-4.7,29.52c-17.11,73.81-79.12,132.11-153.61,144.68
		c-6.98,1.18-14.03,1.96-21.05,2.92c-8,0-16,0-24,0c-2.45-0.31-4.9-0.65-7.35-0.92c-37.95-4.16-71.98-17.96-101.48-42.2
		c-36.78-30.23-59.73-68.82-68.21-115.8C101.18,406.08,100.46,399,99.49,391.98z M460.98,379.82
		c-0.15-93.5-76.39-169.56-169.75-169.34c-93.37,0.22-169.21,76.16-169.25,169.45c-0.04,93.39,76.17,169.6,169.55,169.54
		C385,549.41,461.13,473.19,460.98,379.82z"/>
	<path class="st0" d="M304.2,333.1c-12.36,7.21-24.86,14.5-37.36,21.79c-6.58,3.84-13.13,7.72-19.75,11.48
		c-1.64,0.93-1.93,1.83-1.83,3.81c0.33,6.55,0.07,13.12,0.14,19.68c0.01,1.06,0.18,2.69,0.85,3.08
		c19.34,11.42,38.75,22.72,58.24,34.09c7.33-6.87,15.66-11.27,25.49-12.8c23.24-3.6,45.79,12.18,50.63,35.55
		c4.76,23-9.77,46.46-32.42,52.37c-32.73,8.54-62.46-19.74-55.63-52.99c0.38-1.86,0.32-2.91-1.46-3.94
		c-18.79-10.89-37.53-21.86-56.3-32.79c-0.42-0.24-0.92-0.34-1.35-0.5c-22.63,20.78-51,14.02-65.17-1.63
		c-15.34-16.94-15.6-42.84-0.73-59.89c14.14-16.21,43.08-23.44,66.1-2.22c10.92-6.37,21.91-12.78,32.9-19.19
		c7.98-4.65,15.94-9.34,23.95-13.93c1.81-1.04,2.53-1.93,2.07-4.35c-3.5-18.35,1.93-33.82,16.75-45.13
		c14.83-11.31,31.35-12.79,47.89-4.09c16.5,8.68,24.86,23.05,24.07,41.68c-0.78,18.3-10.13,31.79-26.9,39.16
		c-16.82,7.4-32.69,4.52-47.03-6.86c-0.78-0.62-1.48-1.33-2.25-1.98C304.95,333.34,304.68,333.3,304.2,333.1z M358.97,301.1
		c-0.06-12.33-10.17-22.37-22.52-22.36c-12.34,0.01-22.43,10.08-22.46,22.42c-0.03,12.49,10.2,22.66,22.7,22.56
		C349,323.61,359.03,313.43,358.97,301.1z M223.97,380.03c0.02-12.34-10.02-22.47-22.34-22.54c-12.36-0.06-22.53,9.93-22.63,22.24
		c-0.11,12.51,10.04,22.76,22.52,22.74C213.84,402.44,223.95,392.34,223.97,380.03z M336.43,436.24
		c-12.34,0.02-22.41,10.1-22.43,22.44c-0.02,12.34,10.04,22.48,22.35,22.54c12.48,0.06,22.69-10.15,22.63-22.64
		C358.91,446.26,348.78,436.21,336.43,436.24z"/>
</g>
</svg>
